<svg width="45" height="45" viewBox="0 0 45 45" fill="none" xmlns="http://www.w3.org/2000/svg">
<path d="M35.3906 18.9844C35.8024 18.9844 36.199 19.1393 36.5019 19.4182C36.8048 19.6971 36.9917 20.0797 37.0256 20.49L37.0313 20.625V33.9844C37.0311 35.3783 36.491 36.7178 35.5244 37.7221C34.5577 38.7263 33.2397 39.317 31.8469 39.3703L31.6406 39.375H13.3594C11.9654 39.3751 10.6255 38.8351 9.62113 37.8685C8.61672 36.9018 8.02584 35.5836 7.9725 34.1907L7.96875 33.9844V20.625C7.96894 20.2017 8.13273 19.7949 8.42589 19.4896C8.71905 19.1842 9.11888 19.004 9.54182 18.9865C9.96475 18.9691 10.3781 19.1158 10.6954 19.396C11.0126 19.6762 11.2094 20.0682 11.2444 20.49L11.25 20.625V33.9844C11.2502 34.5187 11.4531 35.0331 11.8179 35.4236C12.1826 35.8141 12.6819 36.0516 13.215 36.0882L13.3594 36.0938H31.6406C32.1751 36.0939 32.6897 35.891 33.0804 35.5263C33.4711 35.1615 33.7087 34.662 33.7453 34.1288L33.75 33.9844V20.625C33.75 19.7185 34.4841 18.9844 35.3906 18.9844ZM22.0303 5.87535L22.17 5.86223L22.3341 5.86035L22.4784 5.87254L22.6453 5.90254L22.71 5.91941C22.8928 5.97004 23.0691 6.05348 23.2284 6.16973L23.3409 6.25879L23.4281 6.33941L30.72 13.6313C31.0197 13.9289 31.1931 14.3307 31.2041 14.7529C31.2151 15.1752 31.0627 15.5854 30.7788 15.8982C30.4949 16.2109 30.1014 16.4021 29.68 16.432C29.2587 16.4619 28.842 16.3281 28.5169 16.0585L28.3997 15.9516L23.9063 11.4582V29.5313C23.9062 29.9432 23.7513 30.34 23.4721 30.6429C23.193 30.9458 22.8102 31.1326 22.3997 31.1663L22.2656 31.1719C21.8537 31.1719 21.4569 31.0169 21.154 30.7378C20.8511 30.4587 20.6643 30.0759 20.6306 29.6654L20.625 29.5313V11.4619L16.1363 15.9525C15.8479 16.2408 15.4624 16.4114 15.0551 16.431C14.6478 16.4506 14.2478 16.3178 13.9331 16.0585L13.8159 15.9516C13.5275 15.6633 13.3568 15.278 13.337 14.8707C13.3173 14.4634 13.4499 14.0633 13.7091 13.7485L13.8159 13.6313L21.0834 6.36191C21.136 6.30765 21.192 6.25692 21.2513 6.21004L21.3572 6.13504C21.3928 6.10973 21.4294 6.08723 21.4678 6.06566L21.4856 6.05723C21.6546 5.96461 21.8387 5.90301 22.0294 5.87535H22.0303Z" fill="black"/>
</svg>
